<mxfile host="Electron" modified="2025-07-03T00:27:13.434Z" agent="Mozilla/5.0 (Windows NT 10.0; Win64; x64) AppleWebKit/537.36 (KHTML, like Gecko) draw.io/24.1.0 Chrome/120.0.6099.109 Electron/28.1.0 Safari/537.36" etag="vVrnb2es4uUiLfpjVy5X" version="24.1.0" type="device">
  <diagram name="第 1 页" id="I7Iq9LoW3NzZ3ByDNlvh">
    <mxGraphModel dx="988" dy="669" grid="1" gridSize="10" guides="1" tooltips="1" connect="1" arrows="1" fold="1" page="1" pageScale="1" pageWidth="827" pageHeight="1169" math="0" shadow="0">
      <root>
        <mxCell id="0" />
        <mxCell id="1" parent="0" />
        <mxCell id="xIzBSG7d79s3_tnyBmj6-7" style="rounded=0;orthogonalLoop=1;jettySize=auto;html=1;exitX=0.5;exitY=1;exitDx=0;exitDy=0;entryX=0.5;entryY=0;entryDx=0;entryDy=0;" edge="1" parent="1" source="xIzBSG7d79s3_tnyBmj6-1" target="xIzBSG7d79s3_tnyBmj6-2">
          <mxGeometry relative="1" as="geometry" />
        </mxCell>
        <mxCell id="xIzBSG7d79s3_tnyBmj6-8" style="rounded=0;orthogonalLoop=1;jettySize=auto;html=1;exitX=0.5;exitY=1;exitDx=0;exitDy=0;entryX=0.5;entryY=0;entryDx=0;entryDy=0;" edge="1" parent="1" source="xIzBSG7d79s3_tnyBmj6-1" target="xIzBSG7d79s3_tnyBmj6-4">
          <mxGeometry relative="1" as="geometry" />
        </mxCell>
        <mxCell id="xIzBSG7d79s3_tnyBmj6-9" style="rounded=0;orthogonalLoop=1;jettySize=auto;html=1;exitX=0.5;exitY=1;exitDx=0;exitDy=0;entryX=0.5;entryY=0;entryDx=0;entryDy=0;" edge="1" parent="1" source="xIzBSG7d79s3_tnyBmj6-1" target="xIzBSG7d79s3_tnyBmj6-5">
          <mxGeometry relative="1" as="geometry" />
        </mxCell>
        <mxCell id="xIzBSG7d79s3_tnyBmj6-10" style="rounded=0;orthogonalLoop=1;jettySize=auto;html=1;exitX=0.5;exitY=1;exitDx=0;exitDy=0;entryX=0.5;entryY=0;entryDx=0;entryDy=0;" edge="1" parent="1" source="xIzBSG7d79s3_tnyBmj6-1" target="xIzBSG7d79s3_tnyBmj6-6">
          <mxGeometry relative="1" as="geometry" />
        </mxCell>
        <mxCell id="xIzBSG7d79s3_tnyBmj6-1" value="&lt;font style=&quot;font-size: 18px;&quot;&gt;学生&lt;/font&gt;" style="rounded=0;whiteSpace=wrap;html=1;" vertex="1" parent="1">
          <mxGeometry x="330" y="170" width="120" height="60" as="geometry" />
        </mxCell>
        <mxCell id="xIzBSG7d79s3_tnyBmj6-2" value="&lt;u&gt;&lt;font style=&quot;font-size: 18px;&quot;&gt;学号&lt;/font&gt;&lt;/u&gt;" style="ellipse;whiteSpace=wrap;html=1;" vertex="1" parent="1">
          <mxGeometry x="80" y="280" width="120" height="50" as="geometry" />
        </mxCell>
        <mxCell id="xIzBSG7d79s3_tnyBmj6-4" value="&lt;font style=&quot;font-size: 18px;&quot;&gt;姓名&lt;/font&gt;" style="ellipse;whiteSpace=wrap;html=1;" vertex="1" parent="1">
          <mxGeometry x="250" y="280" width="120" height="50" as="geometry" />
        </mxCell>
        <mxCell id="xIzBSG7d79s3_tnyBmj6-5" value="&lt;font style=&quot;font-size: 18px;&quot;&gt;班级&lt;/font&gt;" style="ellipse;whiteSpace=wrap;html=1;" vertex="1" parent="1">
          <mxGeometry x="414" y="280" width="120" height="50" as="geometry" />
        </mxCell>
        <mxCell id="xIzBSG7d79s3_tnyBmj6-6" value="&lt;font style=&quot;font-size: 18px;&quot;&gt;性别&lt;/font&gt;" style="ellipse;whiteSpace=wrap;html=1;" vertex="1" parent="1">
          <mxGeometry x="580" y="280" width="120" height="50" as="geometry" />
        </mxCell>
      </root>
    </mxGraphModel>
  </diagram>
</mxfile>
